<svg xmlns="http://www.w3.org/2000/svg" viewBox="0 0 183.19 214.07"><title>Indigo Capital Management Logo</title><g id="Layer_2" data-name="Layer 2"><g id="Layer_1-2" data-name="Layer 1"><path d="M1.48,168.47H5.23v21.38H1.48Z"/><path d="M24.8,168.47h3.48l11.46,14.78V168.47h3.69v21.38H40.29L28.5,174.64v15.21H24.8Z"/><path d="M63,168.47h8c6.72,0,11.37,4.61,11.37,10.63v.06c0,6-4.65,10.69-11.37,10.69H63Zm3.76,3.42v14.54h4.21c4.49,0,7.43-3,7.43-7.21v-.06a7,7,0,0,0-7.43-7.27Z"/><path d="M100.82,168.47h3.76v21.38h-3.76Z"/><path d="M123.1,179.22v-.06a10.9,10.9,0,0,1,11-11.06,11.56,11.56,0,0,1,8.22,2.9L140,173.84a8.4,8.4,0,0,0-6-2.29c-3.94,0-6.93,3.45-6.93,7.55v.06c0,4.4,2.9,7.63,7.27,7.63a8.77,8.77,0,0,0,5.16-1.61v-4H134V177.9h9.1v9a13.63,13.63,0,0,1-8.92,3.33C127.5,190.22,123.1,185.45,123.1,179.22Z"/><path d="M160.83,179.22v-.06a11.18,11.18,0,0,1,22.36-.06v.06a11.18,11.18,0,0,1-22.36.06Zm18.42,0v-.06a7.33,7.33,0,0,0-7.27-7.61,7.22,7.22,0,0,0-7.21,7.55v.06a7.3,7.3,0,0,0,7.27,7.57A7.2,7.2,0,0,0,179.25,179.22Z"/><path d="M140.92,33.43A68.69,68.69,0,0,1,18.82,95.87a68.69,68.69,0,1,0,122.1-62.44Z"/><rect x="80.03" width="5.46" height="78.48"/><path d="M0,209v0a5,5,0,0,1,5.06-5.07,5.11,5.11,0,0,1,3.83,1.52l-1.1,1.28A3.92,3.92,0,0,0,5,205.51,3.3,3.3,0,0,0,1.81,209v0A3.3,3.3,0,0,0,5,212.47a3.85,3.85,0,0,0,2.82-1.26L9,212.33a5.06,5.06,0,0,1-4,1.74A4.94,4.94,0,0,1,0,209Z"/><path d="M14.84,204h1.59l4.32,9.88H18.93l-1-2.37H13.3l-1,2.37H10.52Zm2.46,6-1.69-3.92L13.93,210Z"/><path d="M23,204.09h3.86c2.3,0,3.73,1.31,3.73,3.28v0c0,2.2-1.77,3.35-3.92,3.35H24.68v3.15H23Zm3.72,5.1c1.31,0,2.12-.73,2.12-1.75v0c0-1.15-.83-1.75-2.12-1.75h-2v3.53Z"/><path d="M33,204.09h1.72v9.81H33Z"/><path d="M40.09,205.69H37v-1.6h8v1.6H41.82v8.21H40.09Z"/><path d="M49.53,204h1.59l4.32,9.88H53.62l-1-2.37H48l-1,2.37H45.21ZM52,210l-1.69-3.92L48.62,210Z"/><path d="M57.65,204.09h1.72v8.24h5.16v1.57H57.65Z"/><path d="M71.64,204.09h1.83l3,4.64,3-4.64h1.83v9.81H79.55v-7l-3.1,4.62h0l-3.07-4.59v7H71.64Z"/><path d="M87.8,204h1.59l4.32,9.88H91.89l-1-2.37H86.25l-1,2.37H83.48Zm2.46,6-1.69-3.92L86.89,210Z"/><path d="M95.92,204.09h1.59l5.26,6.78v-6.78h1.69v9.81H103l-5.41-7v7H95.92Z"/><path d="M111,204h1.59l4.32,9.88h-1.82l-1-2.37h-4.63l-1,2.37h-1.77Zm2.46,6-1.69-3.92L110.07,210Z"/><path d="M118.13,209v0a5,5,0,0,1,5.06-5.07,5.27,5.27,0,0,1,3.76,1.33l-1.09,1.3a3.82,3.82,0,0,0-2.74-1.05,3.31,3.31,0,0,0-3.18,3.46v0a3.28,3.28,0,0,0,3.33,3.5,4.1,4.1,0,0,0,2.37-.74v-1.84h-2.51v-1.5h4.17v4.12a6.21,6.21,0,0,1-4.09,1.53A4.87,4.87,0,0,1,118.13,209Z"/><path d="M130.26,204.09h7.27v1.54H132v2.55h4.91v1.54H132v2.64h5.61v1.54h-7.34Z"/><path d="M140.33,204.09h1.83l3,4.64,3-4.64H150v9.81h-1.72v-7l-3.1,4.62h0L142,206.9v7h-1.69Z"/><path d="M153.18,204.09h7.27v1.54H154.9v2.55h4.92v1.54H154.9v2.64h5.62v1.54h-7.34Z"/><path d="M163.24,204.09h1.6l5.25,6.78v-6.78h1.7v9.81h-1.44l-5.41-7v7h-1.7Z"/><path d="M177.17,205.69h-3.11v-1.6h8v1.6h-3.11v8.21h-1.74Z"/></g></g></svg>