<svg aria-hidden="true" style="position: absolute; width: 0; height: 0; overflow: hidden;" version="1.1" xmlns="http://www.w3.org/2000/svg" xmlns:xlink="http://www.w3.org/1999/xlink">
<defs>
<filter id="motionBlur">
<feGaussianBlur in="SourceGraphic" stdDeviation="30,0" />
</filter>
<symbol id="icon-indigo-capital-management-logo" viewBox="0 0 27 32">
<title>indigo-capital-management-logo</title>
<path d="M0.221 25.184h0.561v3.196h-0.561z"></path>
<path d="M3.707 25.184h0.52l1.713 2.209v-2.209h0.552v3.196h-0.469l-1.762-2.274v2.274h-0.553z"></path>
<path d="M9.417 25.184h1.196c1.005 0 1.7 0.689 1.7 1.589v0.009c0 0.897-0.695 1.598-1.7 1.598h-1.196zM9.98 25.695v2.174h0.629c0.671 0 1.111-0.448 1.111-1.078v-0.009c0.001-0.013 0.001-0.027 0.001-0.042 0-0.578-0.468-1.046-1.046-1.046-0.023 0-0.046 0.001-0.068 0.002l0.003-0z"></path>
<path d="M15.071 25.184h0.562v3.196h-0.562z"></path>
<path d="M18.401 26.791v-0.009c-0-0.007-0-0.016-0-0.024 0-0.9 0.73-1.629 1.629-1.629 0.005 0 0.011 0 0.016 0h-0.001c0.024-0.001 0.053-0.002 0.082-0.002 0.441 0 0.843 0.165 1.149 0.437l-0.002-0.002-0.347 0.425c-0.224-0.212-0.528-0.343-0.862-0.343-0.012 0-0.024 0-0.037 0.001l0.002-0c-0.589 0-1.036 0.516-1.036 1.129v0.009c0 0.658 0.433 1.141 1.087 1.141 0.004 0 0.009 0 0.014 0 0.284 0 0.547-0.090 0.761-0.243l-0.004 0.003v-0.598h-0.822v-0.49h1.36v1.345c-0.355 0.309-0.822 0.498-1.333 0.498h-0c-0.999-0.002-1.656-0.715-1.656-1.646z"></path>
<path d="M24.041 26.791v-0.009c0-0.001 0-0.003 0-0.005 0-0.923 0.748-1.671 1.671-1.671 0.921 0 1.669 0.746 1.671 1.666v0.009c0 0.001 0 0.003 0 0.005 0 0.923-0.748 1.671-1.671 1.671-0.921 0-1.669-0.746-1.671-1.666v-0zM26.795 26.791v-0.009c0-0.012 0.001-0.027 0.001-0.042 0-0.602-0.486-1.091-1.087-1.096h-0c-0.596 0-1.079 0.483-1.079 1.079 0 0.017 0 0.035 0.001 0.052l-0-0.002v0.009c-0 0.012-0.001 0.026-0.001 0.040 0 0.601 0.486 1.089 1.087 1.091h0c0.001 0 0.002 0 0.003 0 0.594 0 1.076-0.482 1.076-1.076 0-0.016-0-0.032-0.001-0.049l0 0.002z"></path>
<path d="M21.065 4.997c0.547 1.215 0.865 2.633 0.865 4.126 0 5.671-4.597 10.268-10.268 10.268-3.751 0-7.031-2.011-8.823-5.013l-0.026-0.047c1.629 3.647 5.225 6.142 9.403 6.142 5.671 0 10.268-4.597 10.268-10.268 0-1.92-0.527-3.718-1.445-5.255l0.026 0.047z"></path>
<path d="M11.963 0h0.816v11.732h-0.816v-11.732z"></path>
<path d="M0 31.242v0c-0-0.003-0-0.007-0-0.011 0-0.413 0.335-0.747 0.747-0.747 0.003 0 0.006 0 0.010 0h-0c0.008-0 0.018-0.001 0.028-0.001 0.213 0 0.406 0.087 0.544 0.228l0 0-0.164 0.191c-0.105-0.111-0.253-0.18-0.417-0.182h-0c-0.266 0.009-0.478 0.226-0.478 0.493 0 0.010 0 0.020 0.001 0.030l-0-0.001c-0 0.008-0.001 0.017-0.001 0.026 0 0.267 0.212 0.484 0.477 0.493l0.001 0c0.167-0.001 0.317-0.073 0.421-0.188l0-0 0.176 0.167c-0.139 0.16-0.344 0.261-0.571 0.261-0.009 0-0.019-0-0.028-0l0.001 0c-0.003 0-0.006 0-0.009 0-0.408 0-0.738-0.331-0.738-0.738 0-0.007 0-0.014 0-0.020l-0 0.001z"></path>
<path d="M2.218 30.495h0.238l0.646 1.477h-0.272l-0.149-0.354h-0.692l-0.149 0.354h-0.266zM2.586 31.392l-0.253-0.586-0.251 0.586z"></path>
<path d="M3.438 30.508h0.577c0.344 0 0.558 0.196 0.558 0.49v0c0 0.329-0.265 0.501-0.586 0.501h-0.297v0.471h-0.251zM3.994 31.271c0.196 0 0.317-0.109 0.317-0.262v0c0-0.172-0.124-0.262-0.317-0.262h-0.299v0.528z"></path>
<path d="M4.933 30.508h0.257v1.466h-0.257z"></path>
<path d="M5.993 30.747h-0.462v-0.239h1.196v0.239h-0.475v1.227h-0.259z"></path>
<path d="M7.404 30.495h0.238l0.646 1.477h-0.272l-0.149-0.354h-0.691l-0.149 0.354h-0.268zM7.773 31.392l-0.253-0.586-0.253 0.586z"></path>
<path d="M8.618 30.508h0.257v1.232h0.771v0.235h-1.028z"></path>
<path d="M10.709 30.508h0.274l0.448 0.694 0.448-0.694h0.274v1.466h-0.262v-1.046l-0.463 0.691-0.459-0.686v1.046h-0.26z"></path>
<path d="M13.125 30.495h0.238l0.646 1.477h-0.272l-0.149-0.354h-0.694l-0.149 0.354h-0.265zM13.492 31.392l-0.253-0.586-0.251 0.586z"></path>
<path d="M14.338 30.508h0.238l0.786 1.014v-1.014h0.253v1.466h-0.218l-0.809-1.046v1.046h-0.25z"></path>
<path d="M16.593 30.495h0.238l0.646 1.477h-0.272l-0.149-0.354h-0.692l-0.149 0.354h-0.265zM16.96 31.392l-0.253-0.586-0.254 0.586z"></path>
<path d="M17.659 31.242v0c-0-0.003-0-0.007-0-0.011 0-0.413 0.335-0.747 0.747-0.747 0.003 0 0.006 0 0.010 0h-0c0.011-0.001 0.025-0.001 0.038-0.001 0.202 0 0.386 0.076 0.525 0.2l-0.001-0.001-0.163 0.194c-0.102-0.097-0.241-0.157-0.393-0.157-0.006 0-0.011 0-0.017 0l0.001-0c-0.265 0.010-0.476 0.228-0.476 0.494 0 0.008 0 0.016 0.001 0.024l-0-0.001c-0.001 0.010-0.001 0.021-0.001 0.033 0 0.271 0.22 0.49 0.49 0.49 0.003 0 0.006-0 0.009-0h-0c0.001 0 0.002 0 0.003 0 0.131 0 0.253-0.041 0.353-0.112l-0.002 0.001v-0.275h-0.375v-0.224h0.623v0.616c-0.162 0.142-0.376 0.229-0.61 0.229-0 0-0.001 0-0.001 0h0c-0.009 0-0.021 0.001-0.032 0.001-0.402 0-0.728-0.326-0.728-0.728 0-0.009 0-0.018 0-0.027l-0 0.001z"></path>
<path d="M19.472 30.508h1.087v0.23h-0.827v0.381h0.734v0.23h-0.734v0.395h0.839v0.23h-1.097z"></path>
<path d="M20.977 30.508h0.274l0.448 0.694 0.448-0.694h0.275v1.466h-0.257v-1.046l-0.463 0.691-0.475-0.691v1.046h-0.253z"></path>
<path d="M22.898 30.508h1.087v0.23h-0.83v0.381h0.735v0.23h-0.735v0.395h0.84v0.23h-1.097z"></path>
<path d="M24.402 30.508h0.239l0.785 1.014v-1.014h0.254v1.466h-0.215l-0.809-1.046v1.046h-0.254z"></path>
<path d="M26.484 30.747h-0.465v-0.239h1.196v0.239h-0.465v1.227h-0.26z"></path>
</symbol>
</defs>
</svg>
